<?xml version="1.0" encoding="utf-8"?>
<!-- Generator: Adobe Illustrator 25.3.0, SVG Export Plug-In . SVG Version: 6.00 Build 0)  -->
<svg version="1.1" id="Layer_1" xmlns="http://www.w3.org/2000/svg" xmlns:xlink="http://www.w3.org/1999/xlink" x="0px" y="0px"
	 viewBox="0 0 2014.7 1358.5" style="enable-background:new 0 0 2014.7 1358.5;" xml:space="preserve">
<style type="text/css">
	.st0{fill:#FFFFFF;}
	.st1{opacity:0.3;}
	.st2{fill:#F7FCF9;}
	.st3{fill:#FCFEF9;}
	.st4{fill:#FFFEF8;}
	.st5{fill:#FFFCF8;}
	.st6{fill:#FFFAF8;}
	.st7{fill:#FFF8F8;}
	.st8{fill:#EFFAF4;}
	.st9{fill:#F8FDF2;}
	.st10{fill:#FFFDF0;}
	.st11{fill:#FFFAF0;}
	.st12{fill:#FFF5F0;}
	.st13{fill:#FFF2F2;}
	.st14{fill:#E6F7EE;}
	.st15{fill:#F5FCEC;}
	.st16{fill:#FFFBE9;}
	.st17{fill:#FFF7E9;}
	.st18{fill:#FFF0E9;}
	.st19{fill:#FFEBEB;}
	.st20{fill:#DEF4E8;}
	.st21{fill:#F1FBE6;}
	.st22{fill:#FFFAE1;}
	.st23{fill:#FFF5E1;}
	.st24{fill:#FFEBE1;}
	.st25{fill:#FFE5E5;}
	.st26{fill:#D6F1E2;}
	.st27{fill:#EEFAE0;}
	.st28{fill:#FFF9DA;}
	.st29{fill:#FFF2DA;}
	.st30{fill:#FFE6DA;}
	.st31{fill:#FFDEDE;}
	.st32{fill:#CEEFDD;}
	.st33{fill:#EAF9D9;}
	.st34{fill:#FFF8D2;}
	.st35{fill:#FFF0D2;}
	.st36{fill:#FFE1D2;}
	.st37{fill:#FFD8D8;}
	.st38{fill:#C5ECD7;}
	.st39{fill:#E7F8D3;}
	.st40{fill:#FFF6CB;}
	.st41{fill:#FFEDCB;}
	.st42{fill:#FFDCCB;}
	.st43{fill:#FFD1D1;}
	.st44{fill:#BDE9D1;}
	.st45{fill:#E4F7CD;}
	.st46{fill:#FFF5C4;}
	.st47{fill:#FFEAC4;}
	.st48{fill:#FFD8C4;}
	.st49{fill:#FFCACA;}
	.st50{fill:#B5E6CC;}
	.st51{fill:#E0F6C7;}
	.st52{fill:#FFF4BC;}
	.st53{fill:#FFE8BC;}
	.st54{fill:#FFD3BC;}
	.st55{fill:#FFC4C4;}
	.st56{fill:#ADE4C6;}
	.st57{fill:#DDF5C0;}
	.st58{fill:#FFF3B5;}
	.st59{fill:#FFE5B5;}
	.st60{fill:#FFCEB5;}
	.st61{fill:#FFBDBD;}
	.st62{fill:#A5E1C0;}
	.st63{fill:#D9F4BA;}
	.st64{fill:#FFF2AD;}
	.st65{fill:#FFE3AD;}
	.st66{fill:#FFC9AD;}
	.st67{fill:#FFB7B7;}
	.st68{fill:#9CDEBA;}
	.st69{fill:#D6F3B4;}
	.st70{fill:#FFF0A6;}
	.st71{fill:#FFE0A6;}
	.st72{fill:#FFC4A6;}
	.st73{fill:#FFB0B0;}
	.st74{fill:#94DBB5;}
	.st75{fill:#D3F2AE;}
	.st76{fill:#FFEF9F;}
	.st77{fill:#FFDD9F;}
	.st78{fill:#FFBF9F;}
	.st79{fill:#FFA9A9;}
	.st80{fill:#8CD9AF;}
	.st81{fill:#CFF1A7;}
	.st82{fill:#FFEE97;}
	.st83{fill:#FFDB97;}
	.st84{fill:#FFBA97;}
	.st85{fill:#FFA3A3;}
	.st86{fill:#84D6A9;}
	.st87{fill:#CCF0A1;}
	.st88{fill:#FFED90;}
	.st89{fill:#FFD890;}
	.st90{fill:#FFB590;}
	.st91{fill:#FF9C9C;}
	.st92{fill:#7BD3A4;}
	.st93{fill:#C8EE9B;}
	.st94{fill:#FFEB88;}
	.st95{fill:#FFD688;}
	.st96{fill:#FFB088;}
	.st97{fill:#FF9696;}
	.st98{fill:#73D09E;}
	.st99{fill:#C5ED95;}
	.st100{fill:#FFEA81;}
	.st101{fill:#FFD381;}
	.st102{fill:#FFAB81;}
	.st103{fill:#FF8F8F;}
	.st104{fill:#6BCE98;}
	.st105{fill:#C1EC8E;}
	.st106{fill:#FFE979;}
	.st107{fill:#FFD179;}
	.st108{fill:#FFA679;}
	.st109{fill:#FF8989;}
	.st110{fill:#63CB93;}
	.st111{fill:#BEEB88;}
	.st112{fill:#FFE872;}
	.st113{fill:#FFCE72;}
	.st114{fill:#FFA172;}
	.st115{fill:#FF8282;}
	.st116{fill:#5AC88D;}
	.st117{fill:#BBEA82;}
	.st118{fill:#FFE66B;}
	.st119{fill:#FFCB6B;}
	.st120{fill:#FF9C6B;}
	.st121{fill:#FF7B7B;}
	.st122{fill:#52C587;}
	.st123{fill:#B7E97C;}
	.st124{fill:#FFE563;}
	.st125{fill:#FFC963;}
	.st126{fill:#FF9763;}
	.st127{fill:#FF7575;}
	.st128{fill:#4AC381;}
	.st129{fill:#B4E875;}
	.st130{fill:#FFE45C;}
	.st131{fill:#FFC65C;}
	.st132{fill:#FF925C;}
	.st133{fill:#FF6E6E;}
	.st134{fill:#42C07C;}
	.st135{fill:#B0E76F;}
	.st136{fill:#FFE354;}
	.st137{fill:#FFC454;}
	.st138{fill:#FF8D54;}
	.st139{fill:#FF6868;}
	.st140{fill:#3ABD76;}
	.st141{fill:#ADE669;}
	.st142{fill:#FFE24D;}
	.st143{fill:#FFC14D;}
	.st144{fill:#FF894D;}
	.st145{fill:#FF6161;}
	.st146{fill:#31BA70;}
	.st147{fill:#AAE563;}
	.st148{fill:#FFE046;}
	.st149{fill:#FFBE46;}
	.st150{fill:#FF8446;}
	.st151{fill:#FF5A5A;}
	.st152{fill:#29B86B;}
	.st153{fill:#A6E45C;}
	.st154{fill:#FFDF3E;}
	.st155{fill:#FFBC3E;}
	.st156{fill:#FF7F3E;}
	.st157{fill:#FF5454;}
	.st158{fill:#21B565;}
	.st159{fill:#A3E356;}
	.st160{fill:#FFDE37;}
	.st161{fill:#FFB937;}
	.st162{fill:#FF7A37;}
	.st163{fill:#FF4D4D;}
	.st164{fill:#19B25F;}
	.st165{fill:#9FE250;}
	.st166{fill:#FFDD2F;}
	.st167{fill:#FFB72F;}
	.st168{fill:#FF752F;}
	.st169{fill:#FF4747;}
	.st170{fill:#10AF59;}
	.st171{fill:#9CE14A;}
	.st172{fill:#FFDB28;}
	.st173{fill:#FFB428;}
	.st174{fill:#FF7028;}
	.st175{fill:#FF4040;}
	.st176{fill:#08AD54;}
	.st177{fill:#98E043;}
	.st178{fill:#FFDA20;}
	.st179{fill:#FFB220;}
	.st180{fill:#FF6B20;}
	.st181{fill:#FF3A3A;}
	.st182{fill:#00AA4E;}
	.st183{fill:#95DF3D;}
	.st184{fill:#FFD919;}
	.st185{fill:#FFAF19;}
	.st186{fill:#FF6619;}
	.st187{fill:#FF3333;}
	.st188{fill:#F2F2F2;}
	.st189{fill:#213A5C;}
</style>
<g>
	<rect x="-178.6" y="-207.8" class="st0" width="2371.7" height="1897.4"/>
	<g>
		<g class="st1">
			<g>
				<g>
					<path class="st0" d="M1583.9,1079.3h-120.7c-2.8-100.6-29.1-199.2-76.7-287.2l104.6-60.3
						C1549.3,838,1581.2,957.4,1583.9,1079.3z"/>
				</g>
				<g>
					<path class="st0" d="M1473.8,701.7l-104.6,60.4c-52.6-85.4-124.8-157.6-210.2-210.2l60.3-104.6
						C1323.1,510.5,1410.6,597.9,1473.8,701.7z"/>
				</g>
				<g>
					<path class="st0" d="M1189.3,429.9l-60.4,104.6c-88-47.7-186.5-74-287.1-76.8V337.1C963.6,339.9,1083,371.7,1189.3,429.9z"/>
				</g>
				<g>
					<path class="st0" d="M807.1,337.1v120.7c-100.6,2.8-199.2,29.1-287.2,76.7l-60.4-104.6C565.7,371.7,685.1,339.9,807.1,337.1z"
						/>
				</g>
				<g>
					<path class="st0" d="M489.9,551.8c-85.5,52.6-157.7,124.8-210.3,210.3l-104.6-60.4c63.3-103.8,150.7-191.2,254.5-254.5
						L489.9,551.8z"/>
				</g>
				<g>
					<path class="st0" d="M262.2,792.2c-47.6,88-74,186.5-76.7,287.2H64.8c2.7-121.9,34.6-241.4,92.7-347.6L262.2,792.2z"/>
				</g>
			</g>
			<g>
				<path class="st2" d="M1589.5,1073.8h-120.7c-2.8-100.6-29.1-199.2-76.7-287.2l104.6-60.3
					C1554.8,832.5,1586.7,951.9,1589.5,1073.8z"/>
				<path class="st3" d="M1479.4,696.2l-104.6,60.4c-52.6-85.4-124.8-157.6-210.2-210.2l60.3-104.6
					C1328.6,504.9,1416.2,592.4,1479.4,696.2z"/>
				<path class="st4" d="M1194.8,424.4L1134.4,529c-88-47.7-186.5-74-287.1-76.8V331.5C969.2,334.3,1088.5,366.2,1194.8,424.4z"/>
				<path class="st5" d="M812.6,331.5v120.7C712,455,613.4,481.3,525.4,528.9L465,424.3C571.2,366.2,690.7,334.3,812.6,331.5z"/>
				<path class="st6" d="M495.4,546.3c-85.5,52.6-157.7,124.8-210.3,210.3l-104.6-60.4C243.8,592.4,331.2,504.9,435,441.6
					L495.4,546.3z"/>
				<path class="st7" d="M267.7,786.6c-47.6,88-74,186.5-76.7,287.2H70.3C73,951.9,105,832.4,163.1,726.2L267.7,786.6z"/>
			</g>
			<g>
				<path class="st8" d="M1595,1068.2h-120.7c-2.8-100.6-29.1-199.2-76.7-287.2l104.6-60.3C1560.4,826.9,1592.2,946.3,1595,1068.2z"
					/>
				<path class="st9" d="M1484.9,690.6L1380.3,751c-52.6-85.4-124.8-157.6-210.2-210.2l60.3-104.6
					C1334.2,499.4,1421.7,586.8,1484.9,690.6z"/>
				<path class="st10" d="M1200.4,418.8l-60.4,104.6c-88-47.7-186.5-74-287.1-76.8V326C974.7,328.8,1094.1,360.6,1200.4,418.8z"/>
				<path class="st11" d="M818.1,326v120.7c-100.6,2.8-199.2,29.1-287.2,76.7l-60.4-104.6C576.7,360.6,696.2,328.8,818.1,326z"/>
				<path class="st12" d="M500.9,540.7C415.4,593.4,343.2,665.5,290.6,751L186,690.6c63.3-103.8,150.7-191.2,254.5-254.5
					L500.9,540.7z"/>
				<path class="st13" d="M273.3,781.1c-47.6,88-74,186.5-76.7,287.2H75.9c2.7-121.9,34.6-241.4,92.7-347.6L273.3,781.1z"/>
			</g>
			<g>
				<path class="st14" d="M1600.6,1062.7h-120.7c-2.8-100.6-29.1-199.2-76.7-287.2l104.6-60.3
					C1565.9,821.4,1597.8,940.8,1600.6,1062.7z"/>
				<path class="st15" d="M1490.5,685.1l-104.6,60.4c-52.6-85.4-124.8-157.6-210.2-210.2l60.3-104.6
					C1339.7,493.9,1427.2,581.3,1490.5,685.1z"/>
				<path class="st16" d="M1205.9,413.3l-60.4,104.6c-88-47.7-186.5-74-287.1-76.8V320.5C980.2,323.2,1099.6,355.1,1205.9,413.3z"/>
				<path class="st17" d="M823.7,320.5v120.7c-100.6,2.8-199.2,29.1-287.2,76.7l-60.4-104.6C582.3,355.1,701.8,323.2,823.7,320.5z"
					/>
				<path class="st18" d="M506.5,535.2C420.9,587.8,348.8,660,296.2,745.5l-104.6-60.4C254.8,581.3,342.3,493.9,446,430.6
					L506.5,535.2z"/>
				<path class="st19" d="M278.8,775.6c-47.6,88-74,186.5-76.7,287.2H81.4c2.7-121.9,34.6-241.4,92.7-347.6L278.8,775.6z"/>
			</g>
			<g>
				<path class="st20" d="M1606.1,1057.2h-120.7c-2.8-100.6-29.1-199.2-76.7-287.2l104.6-60.3
					C1571.5,815.9,1603.3,935.3,1606.1,1057.2z"/>
				<path class="st21" d="M1496,679.5L1391.4,740c-52.6-85.4-124.8-157.6-210.2-210.2l60.3-104.6
					C1345.3,488.3,1432.8,575.8,1496,679.5z"/>
				<path class="st22" d="M1211.4,407.7L1151,512.4c-88-47.7-186.5-74-287.1-76.8V314.9C985.8,317.7,1105.2,349.6,1211.4,407.7z"/>
				<path class="st23" d="M829.2,314.9v120.7c-100.6,2.8-199.2,29.1-287.2,76.7l-60.4-104.6C587.8,349.6,707.3,317.7,829.2,314.9z"
					/>
				<path class="st24" d="M512,529.7C426.5,582.3,354.3,654.4,301.7,740l-104.6-60.4C260.4,575.8,347.8,488.3,451.6,425L512,529.7z"
					/>
				<path class="st25" d="M284.3,770c-47.6,88-74,186.5-76.7,287.2H87c2.7-121.9,34.6-241.4,92.7-347.6L284.3,770z"/>
			</g>
			<g>
				<path class="st26" d="M1611.6,1051.6h-120.7c-2.8-100.6-29.1-199.2-76.7-287.2l104.6-60.3
					C1577,810.3,1608.9,929.7,1611.6,1051.6z"/>
				<path class="st27" d="M1501.5,674l-104.6,60.4c-52.6-85.4-124.8-157.6-210.2-210.2l60.3-104.6
					C1350.8,482.8,1438.3,570.2,1501.5,674z"/>
				<path class="st28" d="M1217,402.2l-60.4,104.6c-88-47.7-186.5-74-287.1-76.8V309.4C991.3,312.2,1110.7,344,1217,402.2z"/>
				<path class="st29" d="M834.8,309.4v120.7c-100.6,2.8-199.2,29.1-287.2,76.7l-60.4-104.6C593.4,344,712.8,312.2,834.8,309.4z"/>
				<path class="st30" d="M517.6,524.1C432,576.7,359.9,648.9,307.2,734.4L202.6,674c63.3-103.8,150.7-191.2,254.5-254.5
					L517.6,524.1z"/>
				<path class="st31" d="M289.9,764.5c-47.6,88-74,186.5-76.7,287.2H92.5c2.7-121.9,34.6-241.4,92.7-347.6L289.9,764.5z"/>
			</g>
			<g>
				<path class="st32" d="M1617.2,1046.1h-120.7c-2.8-100.6-29.1-199.2-76.7-287.2l104.6-60.3
					C1582.5,804.8,1614.4,924.2,1617.2,1046.1z"/>
				<path class="st33" d="M1507.1,668.5l-104.6,60.4c-52.6-85.4-124.8-157.6-210.2-210.2l60.3-104.6
					C1356.3,477.2,1443.9,564.7,1507.1,668.5z"/>
				<path class="st34" d="M1222.5,396.7l-60.4,104.6c-88-47.7-186.5-74-287.1-76.8V303.8C996.9,306.6,1116.2,338.5,1222.5,396.7z"/>
				<path class="st35" d="M840.3,303.8v120.7c-100.6,2.8-199.2,29.1-287.2,76.7l-60.4-104.6C598.9,338.5,718.4,306.6,840.3,303.8z"
					/>
				<path class="st36" d="M523.1,518.6c-85.5,52.6-157.7,124.8-210.3,210.3l-104.6-60.4c63.3-103.8,150.7-191.2,254.5-254.5
					L523.1,518.6z"/>
				<path class="st37" d="M295.4,758.9c-47.6,88-74,186.5-76.7,287.2H98c2.7-121.9,34.6-241.4,92.7-347.6L295.4,758.9z"/>
			</g>
			<g>
				<path class="st38" d="M1622.7,1040.5H1502c-2.8-100.6-29.1-199.2-76.7-287.2L1530,693C1588.1,799.2,1619.9,918.6,1622.7,1040.5z
					"/>
				<path class="st39" d="M1512.6,662.9L1408,723.3c-52.6-85.4-124.8-157.6-210.2-210.2l60.3-104.6
					C1361.9,471.7,1449.4,559.1,1512.6,662.9z"/>
				<path class="st40" d="M1228.1,391.1l-60.4,104.6c-88-47.7-186.5-74-287.1-76.8V298.3C1002.4,301.1,1121.8,332.9,1228.1,391.1z"
					/>
				<path class="st41" d="M845.8,298.3V419c-100.6,2.8-199.2,29.1-287.2,76.7L498.2,391C604.4,332.9,723.9,301.1,845.8,298.3z"/>
				<path class="st42" d="M528.6,513c-85.5,52.6-157.7,124.8-210.3,210.3l-104.6-60.4C277,559.1,364.4,471.7,468.2,408.4L528.6,513z
					"/>
				<path class="st43" d="M301,753.4c-47.6,88-74,186.5-76.7,287.2H103.6c2.7-121.9,34.6-241.4,92.7-347.6L301,753.4z"/>
			</g>
			<g>
				<path class="st44" d="M1628.3,1035h-120.7c-2.8-100.6-29.1-199.2-76.7-287.2l104.6-60.3C1593.6,793.7,1625.5,913.1,1628.3,1035z
					"/>
				<path class="st45" d="M1518.2,657.4l-104.6,60.4c-52.6-85.4-124.8-157.6-210.2-210.2l60.3-104.6
					C1367.4,466.2,1454.9,553.6,1518.2,657.4z"/>
				<path class="st46" d="M1233.6,385.6l-60.4,104.6c-88-47.7-186.5-74-287.1-76.8V292.8C1007.9,295.5,1127.3,327.4,1233.6,385.6z"
					/>
				<path class="st47" d="M851.4,292.8v120.7c-100.6,2.8-199.2,29.1-287.2,76.7l-60.4-104.6C610,327.4,729.5,295.5,851.4,292.8z"/>
				<path class="st48" d="M534.2,507.5c-85.5,52.6-157.7,124.8-210.3,210.3l-104.6-60.4C282.5,553.6,370,466.2,473.7,402.9
					L534.2,507.5z"/>
				<path class="st49" d="M306.5,747.9c-47.6,88-74,186.5-76.7,287.2H109.1c2.7-121.9,34.6-241.4,92.7-347.6L306.5,747.9z"/>
			</g>
			<g>
				<path class="st50" d="M1633.8,1029.5h-120.7c-2.8-100.6-29.1-199.2-76.7-287.2l104.6-60.3
					C1599.2,788.2,1631,907.6,1633.8,1029.5z"/>
				<path class="st51" d="M1523.7,651.8l-104.6,60.4c-52.6-85.4-124.8-157.6-210.2-210.2l60.3-104.6
					C1373,460.6,1460.5,548.1,1523.7,651.8z"/>
				<path class="st52" d="M1239.1,380l-60.4,104.6c-88-47.7-186.5-74-287.1-76.8V287.2C1013.5,290,1132.9,321.9,1239.1,380z"/>
				<path class="st53" d="M856.9,287.2v120.7c-100.6,2.8-199.2,29.1-287.2,76.7L509.3,380C615.5,321.9,735,290,856.9,287.2z"/>
				<path class="st54" d="M539.7,502C454.2,554.6,382,626.7,329.4,712.3l-104.6-60.4c63.3-103.8,150.7-191.2,254.5-254.5L539.7,502z
					"/>
				<path class="st55" d="M312,742.3c-47.6,88-74,186.5-76.7,287.2H114.7c2.7-121.9,34.6-241.4,92.7-347.6L312,742.3z"/>
			</g>
			<g>
				<path class="st56" d="M1639.3,1023.9h-120.7c-2.8-100.6-29.1-199.2-76.7-287.2l104.6-60.3
					C1604.7,782.6,1636.6,902,1639.3,1023.9z"/>
				<path class="st57" d="M1529.2,646.3l-104.6,60.4c-52.6-85.4-124.8-157.6-210.2-210.2l60.3-104.6
					C1378.5,455.1,1466,542.5,1529.2,646.3z"/>
				<path class="st58" d="M1244.7,374.5l-60.4,104.6c-88-47.7-186.5-74-287.1-76.8V281.7C1019,284.5,1138.4,316.3,1244.7,374.5z"/>
				<path class="st59" d="M862.4,281.7v120.7c-100.6,2.8-199.2,29.1-287.2,76.7l-60.4-104.6C621.1,316.3,740.5,284.5,862.4,281.7z"
					/>
				<path class="st60" d="M545.3,496.4C459.7,549,387.6,621.2,334.9,706.7l-104.6-60.4c63.3-103.8,150.7-191.2,254.5-254.5
					L545.3,496.4z"/>
				<path class="st61" d="M317.6,736.8c-47.6,88-74,186.5-76.7,287.2H120.2c2.7-121.9,34.6-241.4,92.7-347.6L317.6,736.8z"/>
			</g>
			<g>
				<path class="st62" d="M1644.9,1018.4h-120.7c-2.8-100.6-29.1-199.2-76.7-287.2l104.6-60.3
					C1610.2,777.1,1642.1,896.5,1644.9,1018.4z"/>
				<path class="st63" d="M1534.8,640.8l-104.6,60.4c-52.6-85.4-124.8-157.6-210.2-210.2l60.3-104.6
					C1384,449.5,1471.6,537,1534.8,640.8z"/>
				<path class="st64" d="M1250.2,369l-60.4,104.6c-88-47.7-186.5-74-287.1-76.8V276.1C1024.5,278.9,1143.9,310.8,1250.2,369z"/>
				<path class="st65" d="M868,276.1v120.7c-100.6,2.8-199.2,29.1-287.2,76.7l-60.4-104.6C626.6,310.8,746.1,278.9,868,276.1z"/>
				<path class="st66" d="M550.8,490.9c-85.5,52.6-157.7,124.8-210.3,210.3l-104.6-60.4C299.1,537,386.6,449.5,490.4,386.2
					L550.8,490.9z"/>
				<path class="st67" d="M323.1,731.2c-47.6,88-74,186.5-76.7,287.2H125.7c2.7-121.9,34.6-241.4,92.7-347.6L323.1,731.2z"/>
			</g>
			<g>
				<path class="st68" d="M1650.4,1012.8h-120.7c-2.8-100.6-29.1-199.2-76.7-287.2l104.6-60.3
					C1615.8,771.5,1647.6,890.9,1650.4,1012.8z"/>
				<path class="st69" d="M1540.3,635.2l-104.6,60.4c-52.6-85.4-124.8-157.6-210.2-210.2l60.3-104.6
					C1389.6,444,1477.1,531.4,1540.3,635.2z"/>
				<path class="st70" d="M1255.8,363.4l-60.4,104.6c-88-47.7-186.5-74-287.1-76.8V270.6C1030.1,273.4,1149.5,305.2,1255.8,363.4z"
					/>
				<path class="st71" d="M873.5,270.6v120.7c-100.6,2.8-199.2,29.1-287.2,76.7l-60.4-104.6C632.1,305.2,751.6,273.4,873.5,270.6z"
					/>
				<path class="st72" d="M556.3,485.3C470.8,538,398.6,610.1,346,695.6l-104.6-60.4C304.7,531.4,392.1,444,495.9,380.7L556.3,485.3
					z"/>
				<path class="st73" d="M328.7,725.7c-47.6,88-74,186.5-76.7,287.2H131.3c2.7-121.9,34.6-241.4,92.7-347.6L328.7,725.7z"/>
			</g>
			<g>
				<path class="st74" d="M1656,1007.3h-120.7c-2.8-100.6-29.1-199.2-76.7-287.2l104.6-60.3C1621.3,766,1653.2,885.4,1656,1007.3z"
					/>
				<path class="st75" d="M1545.9,629.7l-104.6,60.4c-52.6-85.4-124.8-157.6-210.2-210.2l60.3-104.6
					C1395.1,438.5,1482.6,525.9,1545.9,629.7z"/>
				<path class="st76" d="M1261.3,357.9l-60.4,104.6c-88-47.7-186.5-74-287.1-76.8V265.1C1035.6,267.8,1155,299.7,1261.3,357.9z"/>
				<path class="st77" d="M879.1,265.1v120.7c-100.6,2.8-199.2,29.1-287.2,76.7l-60.4-104.6C637.7,299.7,757.2,267.8,879.1,265.1z"
					/>
				<path class="st78" d="M561.9,479.8c-85.5,52.6-157.7,124.8-210.3,210.3l-104.6-60.4c63.3-103.8,150.7-191.2,254.5-254.5
					L561.9,479.8z"/>
				<path class="st79" d="M334.2,720.2c-47.6,88-74,186.5-76.7,287.2H136.8c2.7-121.9,34.6-241.4,92.7-347.6L334.2,720.2z"/>
			</g>
			<g>
				<path class="st80" d="M1661.5,1001.8h-120.7c-2.8-100.6-29.1-199.2-76.7-287.2l104.6-60.3
					C1626.9,760.5,1658.7,879.9,1661.5,1001.8z"/>
				<path class="st81" d="M1551.4,624.1l-104.6,60.4c-52.6-85.4-124.8-157.6-210.2-210.2l60.3-104.6
					C1400.7,432.9,1488.2,520.4,1551.4,624.1z"/>
				<path class="st82" d="M1266.8,352.3L1206.4,457c-88-47.7-186.5-74-287.1-76.8V259.5C1041.2,262.3,1160.6,294.2,1266.8,352.3z"/>
				<path class="st83" d="M884.6,259.5v120.7C784,383,685.4,409.3,597.5,456.9L537,352.3C643.2,294.2,762.7,262.3,884.6,259.5z"/>
				<path class="st84" d="M567.4,474.3C481.9,526.9,409.7,599,357.1,684.6l-104.6-60.4C315.8,520.4,403.2,432.9,507,369.6
					L567.4,474.3z"/>
				<path class="st85" d="M339.7,714.6c-47.6,88-74,186.5-76.7,287.2H142.4c2.7-121.9,34.6-241.4,92.7-347.6L339.7,714.6z"/>
			</g>
			<g>
				<path class="st86" d="M1667,996.2h-120.7c-2.8-100.6-29.1-199.2-76.7-287.2l104.6-60.3C1632.4,754.9,1664.3,874.3,1667,996.2z"
					/>
				<path class="st87" d="M1556.9,618.6L1452.3,679c-52.6-85.4-124.8-157.6-210.2-210.2l60.3-104.6
					C1406.2,427.4,1493.7,514.8,1556.9,618.6z"/>
				<path class="st88" d="M1272.4,346.8L1212,451.4c-88-47.7-186.5-74-287.1-76.8V254C1046.7,256.8,1166.1,288.6,1272.4,346.8z"/>
				<path class="st89" d="M890.1,254v120.7C789.5,377.5,691,403.8,603,451.4l-60.4-104.6C648.8,288.6,768.2,256.8,890.1,254z"/>
				<path class="st90" d="M573,468.7C487.4,521.3,415.3,593.5,362.6,679L258,618.6c63.3-103.8,150.7-191.2,254.5-254.5L573,468.7z"
					/>
				<path class="st91" d="M345.3,709.1c-47.6,88-74,186.5-76.7,287.2H147.9c2.7-121.9,34.6-241.4,92.7-347.6L345.3,709.1z"/>
			</g>
			<g>
				<path class="st92" d="M1672.6,990.7h-120.7c-2.8-100.6-29.1-199.2-76.7-287.2l104.6-60.3
					C1637.9,749.4,1669.8,868.8,1672.6,990.7z"/>
				<path class="st93" d="M1562.5,613.1l-104.6,60.4c-52.6-85.4-124.8-157.6-210.2-210.2l60.3-104.6
					C1411.7,421.8,1499.3,509.3,1562.5,613.1z"/>
				<path class="st94" d="M1277.9,341.3l-60.4,104.6c-88-47.7-186.5-74-287.1-76.8V248.4C1052.2,251.2,1171.6,283.1,1277.9,341.3z"
					/>
				<path class="st95" d="M895.7,248.4v120.7c-100.6,2.8-199.2,29.1-287.2,76.7l-60.4-104.6C654.3,283.1,773.8,251.2,895.7,248.4z"
					/>
				<path class="st96" d="M578.5,463.2C493,515.8,420.8,588,368.2,673.5l-104.6-60.4c63.3-103.8,150.7-191.2,254.5-254.5
					L578.5,463.2z"/>
				<path class="st97" d="M350.8,703.5c-47.6,88-74,186.5-76.7,287.2H153.4c2.7-121.9,34.6-241.4,92.7-347.6L350.8,703.5z"/>
			</g>
			<g>
				<path class="st98" d="M1678.1,985.2h-120.7c-2.8-100.6-29.1-199.2-76.7-287.2l104.6-60.3
					C1643.5,743.8,1675.3,863.2,1678.1,985.2z"/>
				<path class="st99" d="M1568,607.5L1463.4,668c-52.6-85.4-124.8-157.6-210.2-210.2l60.3-104.6
					C1417.3,416.3,1504.8,503.7,1568,607.5z"/>
				<path class="st100" d="M1283.5,335.7L1223,440.4c-88-47.7-186.5-74-287.1-76.8V242.9C1057.8,245.7,1177.2,277.6,1283.5,335.7z"
					/>
				<path class="st101" d="M901.2,242.9v120.7c-100.6,2.8-199.2,29.1-287.2,76.7l-60.4-104.6C659.8,277.6,779.3,245.7,901.2,242.9z"
					/>
				<path class="st102" d="M584,457.6C498.5,510.3,426.3,582.4,373.7,668l-104.6-60.4C332.4,503.7,419.8,416.3,523.6,353L584,457.6z
					"/>
				<path class="st103" d="M356.4,698c-47.6,88-74,186.5-76.7,287.2H159c2.7-121.9,34.6-241.4,92.7-347.6L356.4,698z"/>
			</g>
			<g>
				<path class="st104" d="M1683.7,979.6H1563c-2.8-100.6-29.1-199.2-76.7-287.2l104.6-60.3C1649,738.3,1680.9,857.7,1683.7,979.6z"
					/>
				<path class="st105" d="M1573.6,602l-104.6,60.4c-52.6-85.4-124.8-157.6-210.2-210.2l60.3-104.6
					C1422.8,410.8,1510.3,498.2,1573.6,602z"/>
				<path class="st106" d="M1289,330.2l-60.4,104.6c-88-47.7-186.5-74-287.1-76.8V237.4C1063.3,240.1,1182.7,272,1289,330.2z"/>
				<path class="st107" d="M906.8,237.4v120.7c-100.6,2.8-199.2,29.1-287.2,76.7l-60.4-104.6C665.4,272,784.9,240.1,906.8,237.4z"/>
				<path class="st108" d="M589.6,452.1C504,504.7,431.9,576.9,379.3,662.4L274.6,602c63.3-103.8,150.7-191.2,254.5-254.5
					L589.6,452.1z"/>
				<path class="st109" d="M361.9,692.5c-47.6,88-74,186.5-76.7,287.2H164.5c2.7-121.9,34.6-241.4,92.7-347.6L361.9,692.5z"/>
			</g>
			<g>
				<path class="st110" d="M1689.2,974.1h-120.7c-2.8-100.6-29.1-199.2-76.7-287.2l104.6-60.3
					C1654.6,732.8,1686.4,852.2,1689.2,974.1z"/>
				<path class="st111" d="M1579.1,596.4l-104.6,60.4c-52.6-85.4-124.8-157.6-210.2-210.2l60.3-104.6
					C1428.4,405.2,1515.9,492.7,1579.1,596.4z"/>
				<path class="st112" d="M1294.5,324.6l-60.4,104.6c-88-47.7-186.5-74-287.1-76.8V231.8C1068.9,234.6,1188.3,266.5,1294.5,324.6z"
					/>
				<path class="st113" d="M912.3,231.8v120.7c-100.6,2.8-199.2,29.1-287.2,76.7l-60.4-104.6C670.9,266.5,790.4,234.6,912.3,231.8z"
					/>
				<path class="st114" d="M595.1,446.6c-85.5,52.6-157.7,124.8-210.3,210.3l-104.6-60.4c63.3-103.8,150.7-191.2,254.5-254.5
					L595.1,446.6z"/>
				<path class="st115" d="M367.4,686.9c-47.6,88-74,186.5-76.7,287.2H170.1c2.7-121.9,34.6-241.4,92.7-347.6L367.4,686.9z"/>
			</g>
			<g>
				<path class="st116" d="M1694.7,968.5H1574c-2.8-100.6-29.1-199.2-76.7-287.2L1602,621C1660.1,727.2,1692,846.6,1694.7,968.5z"/>
				<path class="st117" d="M1584.6,590.9L1480,651.3c-52.6-85.4-124.8-157.6-210.2-210.2l60.3-104.6
					C1433.9,399.7,1521.4,487.1,1584.6,590.9z"/>
				<path class="st118" d="M1300.1,319.1l-60.4,104.6c-88-47.7-186.5-74-287.1-76.8V226.3C1074.4,229.1,1193.8,260.9,1300.1,319.1z"
					/>
				<path class="st119" d="M917.8,226.3V347c-100.6,2.8-199.2,29.1-287.2,76.7L570.3,319C676.5,260.9,795.9,229.1,917.8,226.3z"/>
				<path class="st120" d="M600.6,441C515.1,493.6,443,565.8,390.3,651.3l-104.6-60.4C349,487.1,436.4,399.7,540.2,336.4L600.6,441z
					"/>
				<path class="st121" d="M373,681.4c-47.6,88-74,186.5-76.7,287.2H175.6c2.7-121.9,34.6-241.4,92.7-347.6L373,681.4z"/>
			</g>
			<g>
				<path class="st122" d="M1700.3,963h-120.7c-2.8-100.6-29.1-199.2-76.7-287.2l104.6-60.3C1665.6,721.7,1697.5,841.1,1700.3,963z"
					/>
				<path class="st123" d="M1590.2,585.4l-104.6,60.4c-52.6-85.4-124.8-157.6-210.2-210.2l60.3-104.6
					C1439.4,394.2,1527,481.6,1590.2,585.4z"/>
				<path class="st124" d="M1305.6,313.6l-60.4,104.6c-88-47.7-186.5-74-287.1-76.8V220.7C1079.9,223.5,1199.3,255.4,1305.6,313.6z"
					/>
				<path class="st125" d="M923.4,220.7v120.7c-100.6,2.8-199.2,29.1-287.2,76.7l-60.4-104.6C682,255.4,801.5,223.5,923.4,220.7z"/>
				<path class="st126" d="M606.2,435.5c-85.5,52.6-157.7,124.8-210.3,210.3l-104.6-60.4C354.5,481.6,442,394.1,545.8,330.8
					L606.2,435.5z"/>
				<path class="st127" d="M378.5,675.8c-47.6,88-74,186.5-76.7,287.2H181.1c2.7-121.9,34.6-241.4,92.7-347.6L378.5,675.8z"/>
			</g>
			<g>
				<path class="st128" d="M1705.8,957.5h-120.7c-2.8-100.6-29.1-199.2-76.7-287.2l104.6-60.3C1671.2,716.1,1703,835.5,1705.8,957.5
					z"/>
				<path class="st129" d="M1595.7,579.8l-104.6,60.4c-52.6-85.4-124.8-157.6-210.2-210.2l60.3-104.6
					C1445,388.6,1532.5,476.1,1595.7,579.8z"/>
				<path class="st130" d="M1311.2,308l-60.4,104.6c-88-47.7-186.5-74-287.1-76.8V215.2C1085.5,218,1204.9,249.9,1311.2,308z"/>
				<path class="st131" d="M928.9,215.2v120.7c-100.6,2.8-199.2,29.1-287.2,76.7l-60.4-104.6C687.5,249.9,807,218,928.9,215.2z"/>
				<path class="st132" d="M611.7,429.9C526.2,482.6,454,554.7,401.4,640.3l-104.6-60.4C360.1,476,447.5,388.6,551.3,325.3
					L611.7,429.9z"/>
				<path class="st133" d="M384.1,670.3c-47.6,88-74,186.5-76.7,287.2H186.7c2.7-121.9,34.6-241.4,92.7-347.6L384.1,670.3z"/>
			</g>
			<g>
				<path class="st134" d="M1711.4,951.9h-120.7c-2.8-100.6-29.1-199.2-76.7-287.2l104.6-60.3C1676.7,710.6,1708.6,830,1711.4,951.9
					z"/>
				<path class="st135" d="M1601.3,574.3l-104.6,60.4c-52.6-85.4-124.8-157.6-210.2-210.2l60.3-104.6
					C1450.5,383.1,1538,470.5,1601.3,574.3z"/>
				<path class="st136" d="M1316.7,302.5l-60.4,104.6c-88-47.7-186.5-74-287.1-76.8V209.7C1091,212.4,1210.4,244.3,1316.7,302.5z"/>
				<path class="st137" d="M934.5,209.7v120.7c-100.6,2.8-199.2,29.1-287.2,76.7l-60.4-104.6C693.1,244.3,812.6,212.4,934.5,209.7z"
					/>
				<path class="st138" d="M617.3,424.4C531.7,477,459.6,549.2,407,634.7l-104.6-60.4c63.3-103.8,150.7-191.2,254.5-254.5
					L617.3,424.4z"/>
				<path class="st139" d="M389.6,664.8c-47.6,88-74,186.5-76.7,287.2H192.2c2.7-121.9,34.6-241.4,92.7-347.6L389.6,664.8z"/>
			</g>
			<g>
				<path class="st140" d="M1716.9,946.4h-120.7c-2.8-100.6-29.1-199.2-76.7-287.2l104.6-60.3
					C1682.3,705.1,1714.1,824.5,1716.9,946.4z"/>
				<path class="st141" d="M1606.8,568.7l-104.6,60.4c-52.6-85.4-124.8-157.6-210.2-210.2l60.3-104.6
					C1456.1,377.5,1543.6,465,1606.8,568.7z"/>
				<path class="st142" d="M1322.2,296.9l-60.4,104.6c-88-47.7-186.5-74-287.1-76.8V204.1C1096.6,206.9,1216,238.8,1322.2,296.9z"/>
				<path class="st143" d="M940,204.1v120.7c-100.6,2.8-199.2,29.1-287.2,76.7l-60.4-104.6C698.6,238.8,818.1,206.9,940,204.1z"/>
				<path class="st144" d="M622.8,418.9c-85.5,52.6-157.7,124.8-210.3,210.3l-104.6-60.4C371.2,465,458.6,377.5,562.4,314.2
					L622.8,418.9z"/>
				<path class="st145" d="M395.1,659.2c-47.6,88-74,186.5-76.7,287.2H197.8c2.7-121.9,34.6-241.4,92.7-347.6L395.1,659.2z"/>
			</g>
			<g>
				<path class="st146" d="M1722.4,940.8h-120.7c-2.8-100.6-29.1-199.2-76.7-287.2l104.6-60.3
					C1687.8,699.5,1719.7,818.9,1722.4,940.8z"/>
				<path class="st147" d="M1612.3,563.2l-104.6,60.4c-52.6-85.4-124.8-157.6-210.2-210.2l60.3-104.6
					C1461.6,372,1549.1,459.4,1612.3,563.2z"/>
				<path class="st148" d="M1327.8,291.4L1267.3,396c-88-47.7-186.5-74-287.1-76.8V198.6C1102.1,201.4,1221.5,233.2,1327.8,291.4z"
					/>
				<path class="st149" d="M945.5,198.6v120.7c-100.6,2.8-199.2,29.1-287.2,76.7L598,291.3C704.2,233.2,823.6,201.4,945.5,198.6z"/>
				<path class="st150" d="M628.3,413.3C542.8,465.9,470.7,538.1,418,623.6l-104.6-60.4C376.7,459.4,464.1,372,567.9,308.7
					L628.3,413.3z"/>
				<path class="st151" d="M400.7,653.7c-47.6,88-74,186.5-76.7,287.2H203.3c2.7-121.9,34.6-241.4,92.7-347.6L400.7,653.7z"/>
			</g>
			<g>
				<path class="st152" d="M1728,935.3h-120.7c-2.8-100.6-29.1-199.2-76.7-287.2l104.6-60.3C1693.3,694,1725.2,813.4,1728,935.3z"/>
				<path class="st153" d="M1617.9,557.7l-104.6,60.4c-52.6-85.4-124.8-157.6-210.2-210.2l60.3-104.6
					C1467.1,366.5,1554.7,453.9,1617.9,557.7z"/>
				<path class="st154" d="M1333.3,285.9l-60.4,104.6c-88-47.7-186.5-74-287.1-76.8V193C1107.6,195.8,1227,227.7,1333.3,285.9z"/>
				<path class="st155" d="M951.1,193v120.7c-100.6,2.8-199.2,29.1-287.2,76.7l-60.4-104.6C709.7,227.7,829.2,195.8,951.1,193z"/>
				<path class="st156" d="M633.9,407.8c-85.5,52.6-157.7,124.8-210.3,210.3l-104.6-60.4c63.3-103.8,150.7-191.2,254.5-254.5
					L633.9,407.8z"/>
				<path class="st157" d="M406.2,648.1c-47.6,88-74,186.5-76.7,287.2H208.8c2.7-121.9,34.6-241.4,92.7-347.6L406.2,648.1z"/>
			</g>
			<g>
				<path class="st158" d="M1733.5,929.8h-120.7c-2.8-100.6-29.1-199.2-76.7-287.2l104.6-60.3
					C1698.9,688.4,1730.7,807.8,1733.5,929.8z"/>
				<path class="st159" d="M1623.4,552.1l-104.6,60.4c-52.6-85.4-124.8-157.6-210.2-210.2l60.3-104.6
					C1472.7,360.9,1560.2,448.4,1623.4,552.1z"/>
				<path class="st160" d="M1338.9,280.3L1278.4,385c-88-47.7-186.5-74-287.1-76.8V187.5C1113.2,190.3,1232.6,222.2,1338.9,280.3z"
					/>
				<path class="st161" d="M956.6,187.5v120.7C856,311,757.4,337.3,669.5,384.9L609,280.2C715.2,222.2,834.7,190.3,956.6,187.5z"/>
				<path class="st162" d="M639.4,402.2C553.9,454.9,481.7,527,429.1,612.6l-104.6-60.4C387.8,448.4,475.2,360.9,579,297.6
					L639.4,402.2z"/>
				<path class="st163" d="M411.8,642.6c-47.6,88-74,186.5-76.7,287.2H214.4c2.7-121.9,34.6-241.4,92.7-347.6L411.8,642.6z"/>
			</g>
			<g>
				<path class="st164" d="M1739.1,924.2h-120.7c-2.8-100.6-29.1-199.2-76.7-287.2l104.6-60.3
					C1704.4,682.9,1736.3,802.3,1739.1,924.2z"/>
				<path class="st165" d="M1629,546.6L1524.3,607c-52.6-85.4-124.8-157.6-210.2-210.2l60.3-104.6
					C1478.2,355.4,1565.7,442.8,1629,546.6z"/>
				<path class="st166" d="M1344.4,274.8L1284,379.4c-88-47.7-186.5-74-287.1-76.8V182C1118.7,184.7,1238.1,216.6,1344.4,274.8z"/>
				<path class="st167" d="M962.2,182v120.7C861.5,305.4,763,331.8,675,379.3l-60.4-104.6C720.8,216.6,840.3,184.7,962.2,182z"/>
				<path class="st168" d="M645,396.7C559.4,449.3,487.3,521.5,434.7,607L330,546.6c63.3-103.8,150.7-191.2,254.5-254.5L645,396.7z"
					/>
				<path class="st169" d="M417.3,637.1c-47.6,88-74,186.5-76.7,287.2H219.9c2.7-121.9,34.6-241.4,92.7-347.6L417.3,637.1z"/>
			</g>
			<g>
				<path class="st170" d="M1744.6,918.7h-120.7c-2.8-100.6-29.1-199.2-76.7-287.2l104.6-60.3C1710,677.4,1741.8,796.8,1744.6,918.7
					z"/>
				<path class="st171" d="M1634.5,541l-104.6,60.4c-52.6-85.4-124.8-157.6-210.2-210.2l60.3-104.6
					C1483.8,349.8,1571.3,437.3,1634.5,541z"/>
				<path class="st172" d="M1349.9,269.3l-60.4,104.6c-88-47.7-186.5-74-287.1-76.8V176.4C1124.3,179.2,1243.7,211.1,1349.9,269.3z"
					/>
				<path class="st173" d="M967.7,176.4v120.7c-100.6,2.8-199.2,29.1-287.2,76.7l-60.4-104.6C726.3,211.1,845.8,179.2,967.7,176.4z"
					/>
				<path class="st174" d="M650.5,391.2C565,443.8,492.8,515.9,440.2,601.5L335.6,541c63.3-103.8,150.7-191.2,254.5-254.5
					L650.5,391.2z"/>
				<path class="st175" d="M422.8,631.5c-47.6,88-74,186.5-76.7,287.2H225.5c2.7-121.9,34.6-241.4,92.7-347.6L422.8,631.5z"/>
			</g>
			<g>
				<path class="st176" d="M1750.1,913.1h-120.7c-2.8-100.6-29.1-199.2-76.7-287.2l104.6-60.3
					C1715.5,671.8,1747.4,791.2,1750.1,913.1z"/>
				<path class="st177" d="M1640,535.5l-104.6,60.4c-52.6-85.4-124.8-157.6-210.2-210.2l60.3-104.6
					C1489.3,344.3,1576.8,431.7,1640,535.5z"/>
				<path class="st178" d="M1355.5,263.7L1295,368.3c-88-47.7-186.5-74-287.1-76.8V170.9C1129.8,173.7,1249.2,205.5,1355.5,263.7z"
					/>
				<path class="st179" d="M973.2,170.9v120.7c-100.6,2.8-199.2,29.1-287.2,76.7l-60.4-104.6C731.9,205.5,851.3,173.7,973.2,170.9z"
					/>
				<path class="st180" d="M656,385.6c-85.5,52.6-157.7,124.8-210.3,210.3l-104.6-60.4C404.4,431.7,491.8,344.3,595.6,281L656,385.6
					z"/>
				<path class="st181" d="M428.4,626c-47.6,88-74,186.5-76.7,287.2H231c2.7-121.9,34.6-241.4,92.7-347.6L428.4,626z"/>
			</g>
			<g>
				<g>
					<path class="st182" d="M1755.7,907.6H1635c-2.8-100.6-29.1-199.2-76.7-287.2l104.6-60.3C1721,666.3,1752.9,785.7,1755.7,907.6z
						"/>
				</g>
				<g>
					<path class="st183" d="M1645.6,530l-104.6,60.4c-52.6-85.4-124.8-157.6-210.2-210.2l60.3-104.6
						C1494.8,338.8,1582.4,426.2,1645.6,530z"/>
				</g>
				<g>
					<path class="st184" d="M1361,258.2l-60.4,104.6c-88-47.7-186.5-74-287.1-76.8V165.3C1135.3,168.1,1254.7,200,1361,258.2z"/>
				</g>
				<g>
					<path class="st185" d="M978.8,165.3V286c-100.6,2.8-199.2,29.1-287.2,76.7l-60.4-104.6C737.4,200,856.9,168.1,978.8,165.3z"/>
				</g>
				<g>
					<path class="st186" d="M661.6,380.1c-85.5,52.6-157.7,124.8-210.3,210.3L346.6,530c63.3-103.8,150.7-191.2,254.5-254.5
						L661.6,380.1z"/>
				</g>
				<g>
					<path class="st187" d="M433.9,620.4c-47.6,88-74,186.5-76.7,287.2H236.5c2.7-121.9,34.6-241.4,92.7-347.6L433.9,620.4z"/>
				</g>
			</g>
		</g>
		<g>
			<g>
				<path class="st182" d="M1755.7,907.6H1635c-2.8-100.6-29.1-199.2-76.7-287.2l104.6-60.3C1721,666.3,1752.9,785.7,1755.7,907.6z"
					/>
			</g>
			<g>
				<path class="st183" d="M1645.6,530l-104.6,60.4c-52.6-85.4-124.8-157.6-210.2-210.2l60.3-104.6
					C1494.8,338.8,1582.4,426.2,1645.6,530z"/>
			</g>
			<g>
				<path class="st184" d="M1361,258.2l-60.4,104.6c-88-47.7-186.5-74-287.1-76.8V165.3C1135.3,168.1,1254.7,200,1361,258.2z"/>
			</g>
			<g>
				<path class="st185" d="M978.8,165.3V286c-100.6,2.8-199.2,29.1-287.2,76.7l-60.4-104.6C737.4,200,856.9,168.1,978.8,165.3z"/>
			</g>
			<g>
				<path class="st186" d="M661.6,380.1c-85.5,52.6-157.7,124.8-210.3,210.3L346.6,530c63.3-103.8,150.7-191.2,254.5-254.5
					L661.6,380.1z"/>
			</g>
			<g>
				<path class="st187" d="M433.9,620.4c-47.6,88-74,186.5-76.7,287.2H236.5c2.7-121.9,34.6-241.4,92.7-347.6L433.9,620.4z"/>
			</g>
		</g>
		<g>
			<path class="st188" d="M996,1250.5c-30.4,0-61.1-3.7-91.4-11.2c-98-24.2-180.7-85.2-232.9-171.7
				c-107.6-178.3-50-411.1,128.3-518.9l0.1-0.1c178.5-107.5,411.3-49.9,518.9,128.5c37.6,62.4,56.3,133.7,54.2,206.1
				c-3.8,129.2-72.1,246.1-182.7,312.7C1130.9,1232,1064,1250.5,996,1250.5z M889.7,697.4c-96.4,58.3-127.5,184.1-69.4,280.5
				c28.2,46.8,72.9,79.7,125.9,92.8c53,13.1,107.9,4.8,154.6-23.5c59.9-36,96.7-99.2,98.8-169.1c1.2-39.1-9-77.6-29.3-111.4
				C1112.1,670.4,986.2,639.2,889.7,697.4L889.7,697.4z"/>
		</g>
		<g>
			<path class="st189" d="M995.6,1027.2c-12.5,0-25-1.5-37.4-4.6c-40.2-9.9-74-34.9-95.4-70.3c-44.1-73-20.5-168.4,52.6-212.5l0,0
				c73.1-44,168.5-20.4,212.6,52.6c15.4,25.6,23.1,54.7,22.2,84.4c-1.6,52.9-29.5,100.8-74.8,128.1
				C1050.8,1019.6,1023.4,1027.2,995.6,1027.2z M919.8,747.2L919.8,747.2c-69,41.7-91.2,131.7-49.6,200.6c20.2,33.4,52.1,57,90,66.4
				c37.9,9.4,77.2,3.4,110.6-16.8c42.7-25.7,69.1-70.9,70.6-120.9c0.8-28-6.4-55.5-20.9-79.7C1078.9,727.9,988.9,705.6,919.8,747.2z
				"/>
		</g>
		<path class="st189" d="M966.7,839.7l447.2-342.1c4.7-3.7,11.3,3.1,6.7,7.7c0,0-396.6,399.6-396.6,399.6
			C978.6,946.4,919.5,879.6,966.7,839.7L966.7,839.7z"/>
		<path class="st189" d="M955.1,805.7c36.8-22.2,84.6-10.4,106.8,26.4c8,13.3,11.6,28,11.1,42.4c-0.8,25.5-14.1,50.2-37.6,64.4
			c-36.8,22.2-84.6,10.4-106.8-26.4C906.5,875.7,918.3,827.9,955.1,805.7z"/>
		<g>
			<g>
				<path class="st182" d="M1784.6,587.1l7.3,16.9l-5.5,2.4l-3.9-9l-10.3,4.4l3,7l-5.5,2.4l-3-7l-12.1,5.2l3.9,9.1l-5.4,2.3l-7.3-17
					L1784.6,587.1z"/>
				<path class="st182" d="M1779.3,625.2l15.3-14.6l3,7.6l-9.5,9.1l12.9-0.6l2.7,6.8l-22.9,0.7l-16.1,15.3l-2.9-7.5l10.4-10
					l-14.2,0.3l-2.6-6.7L1779.3,625.2z"/>
				<path class="st182" d="M1770.5,657.1c1.7-2.6,4.6-4.6,8.9-6.1l14.3-5c4.4-1.5,8-1.8,10.9-0.8c2.9,1,5,3.6,6.5,7.9
					c1.4,4.1,1.4,7.3,0,9.7c-1.4,2.4-3.9,4.2-7.7,5.5l-3.3,1.2l-2.7-7.9l3.7-1.3c1.2-0.4,2.1-0.8,2.8-1.2c0.7-0.4,1.2-0.9,1.5-1.5
					c0.3-0.6,0.3-1.5,0-2.4c-0.5-1.5-1.3-2.3-2.4-2.4c-1.1-0.1-2.6,0.2-4.4,0.8l-18.1,6.3c-1.9,0.7-3.2,1.4-3.9,2.2
					c-0.8,0.8-0.9,1.9-0.4,3.2c0.5,1.4,1.3,2.1,2.3,2.2c1.1,0.1,2.5-0.2,4.4-0.9l3.9-1.4l2.7,7.9l-3.3,1.1c-3.8,1.3-7,1.5-9.7,0.6
					c-2.7-0.9-4.7-3.5-6.1-7.6C1768.7,663.1,1768.8,659.7,1770.5,657.1z"/>
				<path class="st182" d="M1817.7,674.5l5.4,17.6l-5.7,1.7l-2.9-9.4l-10.7,3.3l2.2,7.3l-5.7,1.8l-2.2-7.3l-12.7,3.9l2.9,9.5
					l-5.6,1.7l-5.4-17.7L1817.7,674.5z"/>
				<path class="st182" d="M1825.8,701.5l2.2,8.2l-35.1,9.5l2.6,9.6l-5.6,1.5l-4.8-17.8L1825.8,701.5z"/>
				<path class="st182" d="M1832.9,728.4l2,8.3l-35.4,8.4l2.3,9.7l-5.7,1.3l-4.3-18L1832.9,728.4z"/>
				<path class="st182" d="M1839.1,755.4l3.7,18l-5.8,1.2l-2-9.7l-11,2.2l1.5,7.5l-5.9,1.2l-1.5-7.5l-13,2.6l2,9.8l-5.7,1.2
					l-3.7-18.1L1839.1,755.4z"/>
				<path class="st182" d="M1844.6,783.1l1,5.9l-20.1,12.8l21.6-3.6l1.2,7l-41.6,6.9l-0.9-5.7l21.5-13.1l-23,3.8l-1.2-7.2
					L1844.6,783.1z"/>
				<path class="st182" d="M1844.1,821.7l-0.8-6.5l6.3-0.8l2.7,21.4l-6.3,0.8l-0.8-6.4l-35.6,4.6l-1.1-8.6L1844.1,821.7z"/>
			</g>
			<g>
				<path class="st183" d="M1497.7,235.4l6,4.4l-13.3,26.5l21.1-20.7l6.2,4.6l-31.5,29.2l-7.1-5.3L1497.7,235.4z"/>
				<path class="st183" d="M1525.2,255.9l14.4,11.4l-3.7,4.7l-7.7-6.1l-7,8.8l6,4.7l-3.7,4.7l-6-4.7l-8.2,10.4l7.8,6.2l-3.6,4.6
					L1499,289L1525.2,255.9z"/>
				<path class="st183" d="M1547.3,273.6l8.3,7.1c3.5,3,5.5,5.8,6.2,8.6c0.7,2.8-0.3,5.7-3,8.8c-1.8,2.1-3.5,3.5-5.2,4.3
					c-1.7,0.8-3.5,0.9-5.6,0.3l-8.9,19.4l-6.7-5.7l8.8-17.7l-2.4-2l-12.4,14.5l-6.5-5.5L1547.3,273.6z M1544,294.5
					c1.5,1.3,2.9,1.9,4.2,1.6c1.3-0.2,2.6-1.1,4-2.8c1.4-1.6,2.1-3,2.1-4.2c0.1-1.2-0.6-2.4-2.1-3.7l-2.3-1.9l-7.9,9.3L1544,294.5z"
					/>
				<path class="st183" d="M1560.6,319.1l11.2-24.3l5.9,5.5l-6.7,14l13.1-8.1l5.8,5.3l-23.2,13.2l-11.3,12.3l-6.1-5.6L1560.6,319.1z
					"/>
				<path class="st183" d="M1582.4,358.9c0.6-3,2.6-6.1,6-9.4l10.2-9.8c3.4-3.3,6.7-5.2,9.8-5.6c3.1-0.4,6.2,1,9.3,4.3
					c3,3.1,4.4,6.1,4.2,8.9c-0.3,2.8-1.8,5.6-4.7,8.4l-1.8,1.7l-5.8-6l2.1-2.1c1.4-1.3,2.3-2.5,2.6-3.5c0.4-1,0-2-1-3.1
					c-1.1-1.1-2.2-1.5-3.2-1.1c-1.1,0.4-2.3,1.3-3.7,2.7l-13.5,13c-1.4,1.4-2.3,2.6-2.7,3.8s0,2.3,1,3.4c1,1.1,2.2,1.4,3.4,1.1
					c1.2-0.3,2.6-1.2,4-2.6l3.2-3.1l-2.9-3l3.7-3.6l8.2,8.6l-15.6,15l-3.9-4l2.3-3c-3,1.1-5.6,0.5-8-1.9
					C1583,364.9,1581.8,361.9,1582.4,358.9z"/>
				<path class="st183" d="M1605.6,383.6c0.5-3,2.4-6,5.8-9l11.8-10.5c3.4-3,6.6-4.6,9.6-4.7c3-0.1,6,1.5,8.9,4.9
					c2.9,3.3,4.2,6.5,3.8,9.4c-0.4,3-2.4,6-5.7,9l-11.8,10.5c-3.4,3-6.6,4.6-9.6,4.7c-3,0.1-6-1.5-9-4.8
					C1606.3,389.8,1605.1,386.6,1605.6,383.6z M1617,390.2c1.1-0.3,2.3-1,3.6-2.2l14.9-13.3c1.3-1.2,2.1-2.2,2.5-3.2
					c0.4-1,0.1-2.1-0.9-3.2c-1-1.1-2-1.5-3-1.2c-1,0.3-2.2,1-3.5,2.1l-14.9,13.2c-1.3,1.2-2.2,2.3-2.6,3.3c-0.4,1-0.1,2.1,0.9,3.2
					C1614.9,390.1,1615.9,390.5,1617,390.2z"/>
				<path class="st183" d="M1627.9,409.2c0.6-3,2.7-5.9,6.2-8.8l12.2-10c3.5-2.9,6.8-4.3,9.8-4.3c3,0,5.9,1.8,8.7,5.2
					c2.8,3.4,3.9,6.6,3.4,9.6c-0.6,3-2.6,5.9-6.1,8.7l-12.2,10c-3.5,2.9-6.8,4.3-9.8,4.3c-3,0-6-1.7-8.8-5.2
					C1628.4,415.4,1627.3,412.2,1627.9,409.2z M1639,416.3c1.1-0.2,2.3-0.9,3.6-2l15.5-12.6c1.3-1.1,2.2-2.1,2.7-3.1
					c0.4-1,0.2-2.1-0.8-3.2c-0.9-1.1-1.9-1.6-3-1.4c-1.1,0.2-2.3,0.9-3.6,2l-15.4,12.6c-1.4,1.1-2.3,2.2-2.7,3.2
					c-0.4,1-0.2,2.1,0.8,3.2C1636.9,416.1,1637.9,416.5,1639,416.3z"/>
				<path class="st183" d="M1679.1,410.3l6.2,8.2c2.1,2.8,3.4,5.3,3.9,7.5c0.5,2.2,0.2,4.1-0.8,6c-1,1.8-2.8,3.7-5.3,5.6l-12.3,9.2
					c-2.6,1.9-4.9,3.2-7,3.7c-2.1,0.5-4.1,0.3-6-0.7c-2-1-4-2.9-6.1-5.7l-6.3-8.4L1679.1,410.3z M1656.4,440.3
					c0.9,1.2,1.8,1.9,2.5,2.2c0.8,0.3,1.6,0.2,2.5-0.2c0.8-0.4,1.9-1.1,3.3-2.1l14-10.5c1.3-1,2.2-1.8,2.7-2.4
					c0.5-0.7,0.7-1.4,0.6-2.2c-0.1-0.8-0.6-1.8-1.5-3l-1.1-1.5l-24.1,18.1L1656.4,440.3z"/>
			</g>
			<g>
				<path class="st184" d="M1151.5,128.9c-1.2-2.8-1.4-6.5-0.4-11.1l2.8-13.8c1-4.7,2.6-8.1,4.9-10.1c2.3-2.1,5.7-2.7,10.1-1.8
					c4.3,0.9,7.1,2.5,8.5,4.9c1.4,2.4,1.7,5.6,0.9,9.5l-0.5,2.4l-8.2-1.6l0.6-2.9c0.4-1.9,0.4-3.4,0.2-4.3s-1.1-1.6-2.6-1.9
					c-1.5-0.3-2.6,0-3.3,0.9c-0.7,0.9-1.2,2.4-1.6,4.3l-3.7,18.4c-0.4,1.9-0.4,3.5-0.1,4.6c0.3,1.1,1.3,1.9,2.8,2.2
					c1.5,0.3,2.6-0.1,3.4-1c0.8-1,1.4-2.5,1.8-4.4l0.9-4.4l-4-0.8l1-5.1l11.6,2.3l-4.3,21.2l-5.5-1.1l0.2-3.8
					c-1.8,2.6-4.4,3.6-7.7,2.9C1155.4,133.6,1152.8,131.8,1151.5,128.9z"/>
				<path class="st184" d="M1184.8,136.2c-1.3-2.7-1.4-6.3-0.3-10.7l3.7-15.3c1.1-4.4,2.8-7.5,5.2-9.3c2.4-1.8,5.8-2.1,10.1-1.1
					c4.3,1.1,7.1,2.9,8.5,5.6c1.3,2.7,1.4,6.2,0.4,10.6l-3.8,15.3c-1.1,4.4-2.8,7.5-5.2,9.3c-2.4,1.8-5.8,2.2-10.1,1.1
					C1188.9,140.8,1186.1,138.9,1184.8,136.2z M1197.9,135.2c0.7-0.8,1.3-2.1,1.7-3.8l4.7-19.4c0.4-1.7,0.5-3.1,0.2-4.1
					c-0.3-1-1.1-1.7-2.5-2.1c-1.4-0.3-2.5-0.1-3.2,0.7c-0.7,0.8-1.3,2.1-1.7,3.7l-4.7,19.4c-0.4,1.7-0.5,3.1-0.3,4.2
					c0.2,1.1,1.1,1.8,2.5,2.1C1196.1,136.2,1197.2,136,1197.9,135.2z"/>
				<path class="st184" d="M1217.6,144.5c-1.2-2.8-1.1-6.4,0.1-10.7l4.4-15.1c1.3-4.4,3.1-7.4,5.6-9.1c2.5-1.7,5.9-1.9,10.2-0.6
					c4.3,1.2,7,3.2,8.2,6c1.2,2.8,1.2,6.3-0.1,10.6l-4.4,15.2c-1.3,4.3-3.1,7.4-5.6,9.1c-2.5,1.7-5.9,2-10.2,0.7
					C1221.5,149.3,1218.8,147.3,1217.6,144.5z M1230.8,144.1c0.8-0.8,1.4-2,1.9-3.7l5.5-19.2c0.5-1.7,0.6-3,0.4-4.1
					c-0.2-1.1-1-1.8-2.4-2.2c-1.4-0.4-2.5-0.2-3.2,0.6c-0.8,0.8-1.4,2-1.8,3.7l-5.6,19.2c-0.5,1.7-0.6,3.1-0.4,4.2
					c0.2,1.1,1,1.8,2.5,2.2C1228.9,145.1,1230,144.9,1230.8,144.1z"/>
				<path class="st184" d="M1260.5,116.3l9.8,3.3c3.4,1.1,5.8,2.4,7.4,4c1.6,1.5,2.5,3.3,2.7,5.4c0.2,2.1-0.2,4.6-1.2,7.6l-4.9,14.6
					c-1,3.1-2.2,5.4-3.7,7c-1.4,1.6-3.2,2.5-5.4,2.8c-2.2,0.3-4.9-0.1-8.2-1.2l-10-3.3L1260.5,116.3z M1258.9,154
					c1.4,0.5,2.5,0.6,3.4,0.4c0.8-0.2,1.5-0.7,1.9-1.5c0.5-0.8,1-2,1.5-3.6l5.6-16.6c0.5-1.5,0.8-2.7,0.8-3.5c0-0.8-0.2-1.6-0.7-2.2
					s-1.5-1.1-2.9-1.6l-1.7-0.6l-9.6,28.6L1258.9,154z"/>
			</g>
			<g>
				<path class="st185" d="M719.9,121.3l16.9-5.6l1.8,5.6l-8.8,2.9l3.6,10.8l7.5-2.5l1.9,5.7l-7.5,2.5l5.9,18l-8.1,2.7L719.9,121.3z
					"/>
				<path class="st185" d="M750.5,111.6l9.2-2.7l19.7,38.2l-7.6,2.2l-4.1-8.5l-6.4,1.9l1.1,9.4l-7.8,2.3L750.5,111.6z M765.3,136
					l-7.2-15.6l2.4,17L765.3,136z"/>
				<path class="st185" d="M776.7,104.2l8.3-2.1l10.6,40.9l-8.3,2.1L776.7,104.2z"/>
				<path class="st185" d="M796.3,99.2l10.7-2.4c4.4-1,8-0.9,10.6,0.2c2.6,1.1,4.3,3.7,5.2,7.7c0.6,2.7,0.7,4.9,0.3,6.7
					c-0.4,1.8-1.4,3.4-3.1,4.6l10.2,18.8l-8.6,1.9l-8.9-17.6l-3,0.7l4.2,18.7l-8.3,1.9L796.3,99.2z M811,114.3
					c2-0.4,3.2-1.2,3.8-2.4c0.6-1.1,0.6-2.8,0.2-4.8c-0.5-2-1.1-3.4-2.1-4.2c-0.9-0.8-2.3-1-4.2-0.6l-2.9,0.7l2.7,11.9L811,114.3z"
					/>
			</g>
			<g>
				<path class="st186" d="M342.8,377.5l8.8-10.1c4.8-5.5,10.3-5.6,16.3-0.2c3.2,2.8,4.8,5.6,4.8,8.3c0,2.7-1.3,5.5-3.7,8.3l-2.6,3
					l13.8,12l-5.6,6.4L342.8,377.5z M363.9,380.5c1.2-1.4,1.7-2.6,1.5-3.6c-0.2-1-1.2-2.3-2.8-3.7c-1.1-0.9-2-1.6-2.7-2
					c-0.8-0.4-1.5-0.5-2.3-0.3s-1.6,0.8-2.5,1.8l-2,2.3l8.9,7.8L363.9,380.5z"/>
				<path class="st186" d="M395.6,377.3c-3-0.2-6.2-1.9-9.5-5l-11.4-10.8c-3.3-3.1-5.1-6.2-5.5-9.1c-0.3-3,1-6.1,4.1-9.3
					c3.1-3.2,6.1-4.7,9.1-4.5c3,0.2,6.1,1.8,9.4,5l11.4,10.9c3.3,3.1,5.1,6.2,5.5,9.2c0.4,3-1,6.1-4,9.4
					C401.7,376,398.6,377.5,395.6,377.3z M401.2,365.4c-0.4-1-1.2-2.2-2.4-3.4l-14.5-13.7c-1.3-1.2-2.4-1.9-3.4-2.2
					c-1-0.3-2.1,0.1-3.1,1.1c-1,1.1-1.3,2.1-1,3.1c0.3,1,1.2,2.1,2.4,3.3l14.5,13.7c1.3,1.2,2.4,2,3.5,2.3c1,0.3,2.1-0.1,3.1-1.1
					C401.3,367.5,401.6,366.4,401.2,365.4z"/>
				<path class="st186" d="M419.2,352.9c-3-0.4-6.1-2.2-9.3-5.4l-11-11.3c-3.2-3.3-4.9-6.4-5.1-9.4c-0.2-3,1.3-6,4.5-9.1
					c3.2-3.1,6.3-4.5,9.3-4.2c3,0.3,6.1,2.1,9.2,5.3l11,11.3c3.1,3.2,4.8,6.4,5.1,9.4c0.3,3-1.2,6.1-4.4,9.2
					C425.3,351.9,422.2,353.3,419.2,352.9z M425.3,341.2c-0.3-1.1-1.1-2.2-2.3-3.5l-13.9-14.3c-1.2-1.2-2.3-2-3.4-2.4
					c-1-0.3-2.1,0-3.1,1c-1,1-1.4,2-1.1,3.1c0.3,1,1.1,2.2,2.3,3.4l13.9,14.3c1.2,1.3,2.4,2.1,3.4,2.4c1,0.4,2.1,0,3.1-1
					C425.3,343.3,425.7,342.3,425.3,341.2z"/>
				<path class="st186" d="M415.8,301.8l8.2-7.3c3.4-3,6.5-4.7,9.3-5c2.8-0.3,5.6,1.1,8.3,4.2c1.8,2,3,4,3.6,5.7
					c0.6,1.8,0.4,3.6-0.5,5.6l18.1,11.5l-6.6,5.9l-16.3-11.1l-2.3,2.1l12.7,14.3l-6.4,5.7L415.8,301.8z M436.1,307.8
					c1.5-1.3,2.2-2.7,2.2-3.9c-0.1-1.3-0.8-2.7-2.2-4.3c-1.4-1.6-2.7-2.5-3.9-2.7c-1.2-0.2-2.5,0.3-3.9,1.5l-2.2,2l8.1,9.1
					L436.1,307.8z"/>
			</g>
			<g>
				<path class="st187" d="M141.6,849.7l0.8-7.4l29.6-1.7l-28.5-8l0.9-7.7l41,12.7l-1,8.8L141.6,849.7z"/>
				<path class="st187" d="M145.7,815.4l2.7-18.2l5.9,0.9l-1.5,9.7l11.1,1.7l1.1-7.5l5.9,0.9l-1.1,7.5l13.1,2l1.5-9.8l5.8,0.9
					l-2.7,18.3L145.7,815.4z"/>
				<path class="st187" d="M150,787.4l2-10.8c0.8-4.5,2.3-7.7,4.3-9.6c2.1-1.9,5.1-2.5,9.1-1.8c2.7,0.5,4.8,1.3,6.3,2.4
					c1.5,1.1,2.5,2.6,3,4.7l21.3-1.9l-1.6,8.7l-19.7,1.2l-0.6,3.1l18.8,3.5l-1.6,8.4L150,787.4z M169.8,779.8c0.4-2,0.1-3.5-0.7-4.4
					c-0.8-1-2.3-1.7-4.4-2.1c-2.1-0.4-3.6-0.3-4.7,0.2c-1.1,0.5-1.8,1.7-2.2,3.6l-0.5,2.9l12,2.3L169.8,779.8z"/>
				<path class="st187" d="M182.8,753.5l-26.7,2.4l1.8-7.9l15.5-1.1l-13.6-7.4l1.7-7.7l23,13.6l16.3,3.7l-1.8,8.1L182.8,753.5z"/>
				<path class="st187" d="M168.4,705.7l3.7-12.9c2-7,6.9-9.4,14.7-7.1c4.1,1.2,6.7,3,7.9,5.5c1.1,2.5,1.2,5.5,0.1,9.1l-1.1,3.8
					l17.6,5.1l-2.4,8.2L168.4,705.7z M188.8,699.5c0.5-1.8,0.4-3.1-0.2-3.9c-0.7-0.8-2-1.6-4.1-2.2c-1.4-0.4-2.5-0.6-3.3-0.6
					c-0.8,0-1.6,0.2-2.2,0.7c-0.6,0.5-1.1,1.4-1.5,2.7l-0.8,2.9l11.4,3.3L188.8,699.5z"/>
				<path class="st187" d="M216.1,683.2c-2.8,1.1-6.4,0.9-10.7-0.6l-14.9-5c-4.3-1.4-7.3-3.4-8.8-6c-1.6-2.5-1.6-5.9-0.2-10.2
					c1.4-4.2,3.5-6.9,6.3-8s6.3-0.9,10.6,0.5l15,5c4.3,1.4,7.2,3.4,8.8,6c1.6,2.6,1.7,6,0.3,10.2C221,679.5,218.9,682.2,216.1,683.2
					z M216.2,670c-0.8-0.8-2-1.5-3.6-2l-18.9-6.3c-1.6-0.5-3-0.7-4.1-0.6c-1.1,0.2-1.8,1-2.3,2.3c-0.5,1.4-0.3,2.5,0.4,3.2
					c0.7,0.8,1.9,1.4,3.6,2l18.9,6.3c1.7,0.6,3.1,0.8,4.1,0.6c1.1-0.2,1.9-0.9,2.3-2.4C217.1,671.9,217,670.8,216.2,670z"/>
				<path class="st187" d="M227.2,651.1c-2.9,0.9-6.4,0.6-10.7-1l-14.7-5.6c-4.2-1.6-7.1-3.7-8.6-6.3c-1.5-2.6-1.4-6,0.2-10.2
					c1.6-4.2,3.8-6.7,6.7-7.7c2.8-1,6.4-0.7,10.6,1l14.7,5.6c4.2,1.6,7.1,3.7,8.6,6.4c1.5,2.6,1.5,6-0.1,10.2
					C232.3,647.6,230.1,650.2,227.2,651.1z M227.8,637.9c-0.7-0.8-1.9-1.5-3.6-2.2l-18.6-7.1c-1.6-0.6-3-0.9-4-0.7
					c-1.1,0.1-1.9,0.9-2.4,2.2c-0.5,1.4-0.4,2.5,0.3,3.3c0.7,0.8,1.9,1.5,3.5,2.1l18.6,7.1c1.7,0.6,3,0.9,4.1,0.8
					c1.1-0.1,1.9-0.9,2.4-2.3C228.7,639.9,228.6,638.8,227.8,637.9z"/>
				<path class="st187" d="M202.6,606.1l4.3-10c1.8-4.2,3.9-7,6.4-8.4c2.4-1.4,5.5-1.4,9.3,0.3c2.5,1.1,4.4,2.3,5.6,3.7
					c1.2,1.4,1.9,3.1,1.9,5.2l21.2,2.8l-3.5,8.1l-19.5-3.2l-1.2,2.9l17.6,7.6l-3.4,7.8L202.6,606.1z M223.5,603
					c0.8-1.8,0.9-3.3,0.3-4.5c-0.6-1.1-1.8-2.1-3.8-3c-1.9-0.8-3.5-1.1-4.6-0.8c-1.2,0.3-2.2,1.3-2.9,3.1l-1.2,2.7l11.2,4.8
					L223.5,603z"/>
			</g>
		</g>
	</g>
</g>
</svg>
