<?xml version="1.0" encoding="utf-8"?>
<!-- Generator: Adobe Illustrator 27.5.0, SVG Export Plug-In . SVG Version: 6.00 Build 0)  -->
<svg version="1.1" id="Layer_1" xmlns="http://www.w3.org/2000/svg" xmlns:xlink="http://www.w3.org/1999/xlink" x="0px" y="0px"
	 viewBox="0 0 4000 4000" style="enable-background:new 0 0 4000 4000;" xml:space="preserve">
<g>
	<g>
		<polyline style="fill:#FFFFFF;" points="4000.5,0 4000.5,4000 -0.5,4000 -0.5,0 		"/>
	</g>
</g>
<g>
	<path style="fill:#1D1D1B;" d="M3558.097,2709.581H466.613V726.742h3091.484V2709.581z M566.613,2609.581h2891.484V826.742H566.613
		V2609.581z"/>
</g>
<g>
	<path style="fill:#1D1D1B;" d="M3504.612,2709.581H525.751l973.845-1168.677l749.593,899.558l506.392-561.652L3504.612,2709.581z
		 M739.248,2609.581h2540.559l-524.227-581.434l-509.368,564.953l-746.616-895.986L739.248,2609.581z"/>
</g>
<g>
	<path style="fill:#1D1D1B;" d="M1470.419,1454.936c-64.227,0-124.61-25.011-170.025-70.427
		c-45.416-45.415-70.427-105.798-70.427-170.025s25.011-124.61,70.427-170.025c45.415-45.415,105.798-70.427,170.025-70.427
		s124.61,25.011,170.025,70.427c45.416,45.415,70.427,105.798,70.427,170.025s-25.011,124.61-70.427,170.025
		C1595.029,1429.924,1534.646,1454.936,1470.419,1454.936z M1470.419,1074.032c-77.445,0-140.452,63.006-140.452,140.452
		s63.006,140.452,140.452,140.452s140.452-63.006,140.452-140.452S1547.865,1074.032,1470.419,1074.032z"/>
</g>
<g>
	<g>
		<path d="M912.231,3168.914v-320.951h63.052l131.358,214.332v-214.332h60.206v320.951h-65.022l-129.388-209.297v209.297H912.231z"
			/>
		<path d="M1222.236,3010.408c0-32.692,4.888-60.13,14.668-82.317c7.297-16.345,17.258-31.013,29.884-44.005
			c12.623-12.988,26.453-22.622,41.487-28.898c19.994-8.463,43.054-12.698,69.182-12.698c47.289,0,85.126,14.668,113.515,44.005
			c28.386,29.337,42.582,70.133,42.582,122.382c0,51.814-14.087,92.354-42.253,121.616c-28.17,29.265-65.826,43.896-112.968,43.896
			c-47.727,0-85.677-14.56-113.844-43.677C1236.319,3101.593,1222.236,3061.494,1222.236,3010.408z M1289.01,3008.22
			c0,36.342,8.391,63.893,25.177,82.646c16.782,18.757,38.094,28.133,63.927,28.133c25.834,0,47.033-9.305,63.6-27.914
			c16.563-18.608,24.848-46.522,24.848-83.74c0-36.78-8.066-64.219-24.191-82.318c-16.129-18.096-37.547-27.146-64.256-27.146
			s-48.24,9.16-64.584,27.476C1297.182,2943.673,1289.01,2971.295,1289.01,3008.22z"/>
		<path d="M1706.729,3168.914v-320.951h64.803v320.951H1706.729z"/>
		<path d="M1832.395,3168.914v-320.951h96.986l58.235,218.93l57.578-218.93h97.205v320.951h-60.206v-252.646l-63.708,252.646
			h-62.396l-63.489-252.646v252.646H1832.395z"/>
		<path d="M2496.19,3168.914h-70.495l-28.023-72.903h-128.293l-26.49,72.903h-68.744l125.009-320.951h68.525L2496.19,3168.914z
			 M2376.874,3041.935l-44.224-119.098l-43.349,119.098H2376.874z"/>
		<path d="M2679.873,3050.911v-54.076h139.678v127.855c-13.574,13.136-33.243,24.705-59.002,34.7
			c-25.762,9.995-51.852,14.997-78.268,14.997c-33.571,0-62.833-7.04-87.791-21.127c-24.958-14.084-43.714-34.226-56.265-60.425
			c-12.555-26.196-18.828-54.695-18.828-85.492c0-33.421,7.006-63.124,21.018-89.104c14.011-25.978,34.516-45.9,61.519-59.769
			c20.58-10.652,46.194-15.981,76.845-15.981c39.846,0,70.968,8.356,93.374,25.067c22.402,16.714,36.814,39.812,43.238,69.291
			l-64.365,12.042c-4.525-15.764-13.026-28.205-25.505-37.328c-12.479-9.12-28.062-13.683-46.742-13.683
			c-28.317,0-50.829,8.976-67.54,26.928c-16.714,17.952-25.067,44.59-25.067,79.91c0,38.094,8.463,66.664,25.396,85.711
			c16.929,19.047,39.113,28.57,66.555,28.57c13.573,0,27.182-2.661,40.83-7.991c13.646-5.326,25.358-11.784,35.139-19.375v-40.721
			H2679.873z"/>
		<path d="M2879.318,3168.914v-320.951h237.978v54.294h-173.174v71.152h161.133v54.076h-161.133v87.353h179.304v54.076H2879.318z"/>
	</g>
</g>
</svg>
